<?xml version="1.0" encoding="UTF-8"?>
<svg xmlns="http://www.w3.org/2000/svg" xmlns:xlink="http://www.w3.org/1999/xlink" width="50px" height="50px" viewBox="0 0 50 50" version="1.1">
<g id="surface1">
<path style=" stroke:none;fill-rule:evenodd;fill:rgb(100%,100%,100%);fill-opacity:1;" d="M 0 0.0625 L 50 0.0625 L 50 50.066406 L 0 50.066406 L 0 0.0625 "/>
<path style=" stroke:none;fill-rule:nonzero;fill:rgb(13.72549%,12.156863%,12.54902%);fill-opacity:1;" d="M 7.421875 30.164062 C 7.34375 29.246094 6.859375 28.796875 5.921875 28.796875 C 5.207031 28.796875 4.484375 29.171875 4.484375 29.960938 C 4.484375 30.941406 5.359375 31.054688 6.152344 31.207031 C 7.535156 31.558594 9.550781 31.949219 9.550781 33.769531 C 9.550781 35.859375 7.867188 36.679688 6.066406 36.785156 L 5.25 36.785156 C 3.484375 36.683594 2.257812 35.90625 2.207031 33.96875 L 2.207031 33.707031 L 4.171875 33.707031 C 4.09375 34.710938 4.671875 35.386719 5.679688 35.386719 C 6.460938 35.386719 7.496094 35.148438 7.496094 34.1875 C 7.496094 33.128906 6.199219 33.050781 5.414062 32.851562 C 4.148438 32.539062 2.429688 31.964844 2.429688 30.367188 C 2.429688 28.304688 4.320312 27.386719 6.183594 27.386719 C 7.945312 27.386719 9.300781 28.34375 9.300781 30.15625 L 7.421875 30.164062 "/>
<path style=" stroke:none;fill-rule:nonzero;fill:rgb(13.72549%,12.156863%,12.54902%);fill-opacity:1;" d="M 13.832031 36.785156 C 15.667969 36.636719 16.757812 35.328125 16.757812 33.46875 C 16.757812 31.496094 15.53125 30.140625 13.488281 30.140625 C 11.445312 30.140625 10.21875 31.496094 10.21875 33.46875 C 10.21875 35.328125 11.308594 36.636719 13.144531 36.785156 Z M 12.15625 33.46875 C 12.15625 32.46875 12.34375 31.398438 13.488281 31.398438 C 14.632812 31.398438 14.820312 32.46875 14.820312 33.46875 C 14.820312 34.46875 14.632812 35.542969 13.488281 35.542969 C 12.34375 35.542969 12.15625 34.46875 12.15625 33.46875 "/>
<path style=" stroke:none;fill-rule:nonzero;fill:rgb(13.72549%,12.156863%,12.54902%);fill-opacity:1;" d="M 20.992188 28.640625 C 19.667969 28.488281 19.640625 29.089844 19.691406 30.320312 L 20.828125 30.320312 L 20.828125 31.574219 L 19.691406 31.574219 L 19.691406 36.617188 L 17.816406 36.617188 L 17.816406 31.574219 L 16.878906 31.574219 L 16.878906 30.320312 L 17.816406 30.320312 C 17.765625 28.539062 17.929688 27.386719 19.96875 27.386719 C 20.304688 27.386719 20.65625 27.421875 20.992188 27.472656 L 20.992188 28.640625 "/>
<path style=" stroke:none;fill-rule:nonzero;fill:rgb(13.72549%,12.156863%,12.54902%);fill-opacity:1;" d="M 22.566406 30.320312 L 22.566406 29.078125 L 24.441406 28.402344 L 24.441406 30.320312 L 25.851562 30.320312 L 25.851562 31.574219 L 24.441406 31.574219 L 24.441406 34.492188 C 24.441406 35.316406 24.566406 35.542969 25.214844 35.542969 C 25.414062 35.542969 25.613281 35.515625 25.816406 35.503906 L 25.816406 36.609375 C 25.652344 36.683594 25.03125 36.753906 24.628906 36.785156 L 24.023438 36.785156 C 22.832031 36.675781 22.566406 35.925781 22.566406 34.667969 L 22.566406 31.574219 L 21.300781 31.574219 L 21.300781 30.320312 L 22.566406 30.320312 "/>
<path style=" stroke:none;fill-rule:nonzero;fill:rgb(13.72549%,12.156863%,12.54902%);fill-opacity:1;" d="M 27.675781 30.320312 L 27.675781 29.078125 L 29.550781 28.402344 L 29.550781 30.320312 L 30.964844 30.320312 L 30.964844 31.574219 L 29.550781 31.574219 L 29.550781 34.492188 C 29.550781 35.316406 29.675781 35.542969 30.328125 35.542969 C 30.527344 35.542969 30.726562 35.515625 30.925781 35.503906 L 30.925781 36.609375 C 30.765625 36.683594 30.140625 36.753906 29.742188 36.785156 L 29.132812 36.785156 C 27.945312 36.675781 27.675781 35.925781 27.675781 34.667969 L 27.675781 31.574219 L 26.414062 31.574219 L 26.414062 30.320312 L 27.675781 30.320312 "/>
<path style=" stroke:none;fill-rule:nonzero;fill:rgb(13.72549%,12.156863%,12.54902%);fill-opacity:1;" d="M 34.746094 36.785156 C 36.03125 36.691406 37.042969 36.140625 37.191406 34.734375 L 35.503906 34.734375 C 35.328125 35.304688 35 35.542969 34.34375 35.542969 C 33.375 35.542969 33.261719 34.78125 33.261719 33.972656 L 37.390625 33.972656 C 37.390625 33.558594 37.390625 33.15625 37.34375 32.769531 C 37.292969 32.371094 37.203125 31.996094 37.03125 31.644531 C 36.503906 30.542969 35.527344 30.140625 34.34375 30.140625 C 32.425781 30.140625 31.324219 31.597656 31.324219 33.484375 C 31.324219 35.453125 32.085938 36.644531 33.964844 36.785156 Z M 33.261719 32.71875 C 33.289062 32.03125 33.476562 31.398438 34.34375 31.398438 C 35.265625 31.398438 35.453125 32.03125 35.453125 32.71875 L 33.261719 32.71875 "/>
<path style=" stroke:none;fill-rule:nonzero;fill:rgb(13.72549%,12.156863%,12.54902%);fill-opacity:1;" d="M 40.046875 32.871094 L 40.070312 32.898438 L 41.921875 30.253906 L 44.007812 30.253906 L 41.84375 33.011719 L 44.144531 36.617188 L 41.957031 36.617188 L 40.070312 33.171875 L 40.046875 33.199219 L 40.046875 36.617188 L 38.167969 36.617188 L 38.167969 27.566406 L 40.046875 27.566406 L 40.046875 32.871094 "/>
<path style=" stroke:none;fill-rule:nonzero;fill:rgb(100%,100%,100%);fill-opacity:1;" d="M 30.742188 13.960938 C 30.742188 13.621094 31.015625 13.34375 31.355469 13.34375 C 31.695312 13.34375 31.96875 13.621094 31.96875 13.960938 C 31.96875 14.300781 31.695312 14.578125 31.355469 14.578125 C 31.015625 14.578125 30.742188 14.300781 30.742188 13.960938 "/>
<path style="fill:none;stroke-width:6.89694;stroke-linecap:butt;stroke-linejoin:miter;stroke:rgb(13.72549%,12.156863%,12.54902%);stroke-opacity:1;stroke-miterlimit:2.6131;" d="M 1187.376873 1389.152588 C 1187.376873 1402.228589 1197.938039 1412.899809 1211.064061 1412.899809 C 1224.190082 1412.899809 1234.751249 1402.228589 1234.751249 1389.152588 C 1234.751249 1376.076586 1224.190082 1365.405366 1211.064061 1365.405366 C 1197.938039 1365.405366 1187.376873 1376.076586 1187.376873 1389.152588 Z M 1187.376873 1389.152588 " transform="matrix(0.0258908,0,0,-0.0259899,0,50.06485)"/>
<path style=" stroke:none;fill-rule:nonzero;fill:rgb(100%,100%,100%);fill-opacity:1;" d="M 30.632812 26.425781 C 30.632812 26.085938 30.90625 25.808594 31.246094 25.808594 C 31.585938 25.808594 31.863281 26.085938 31.863281 26.425781 C 31.863281 26.769531 31.585938 27.042969 31.246094 27.042969 C 30.90625 27.042969 30.632812 26.769531 30.632812 26.425781 "/>
<path style="fill:none;stroke-width:6.89694;stroke-linecap:butt;stroke-linejoin:miter;stroke:rgb(13.72549%,12.156863%,12.54902%);stroke-opacity:1;stroke-miterlimit:2.6131;" d="M 1183.152406 909.548892 C 1183.152406 922.624894 1193.713573 933.296114 1206.839594 933.296114 C 1219.965615 933.296114 1230.677656 922.624894 1230.677656 909.548892 C 1230.677656 896.322592 1219.965615 885.801671 1206.839594 885.801671 C 1193.713573 885.801671 1183.152406 896.322592 1183.152406 909.548892 Z M 1183.152406 909.548892 " transform="matrix(0.0258908,0,0,-0.0259899,0,50.06485)"/>
<path style=" stroke:none;fill-rule:nonzero;fill:rgb(100%,100%,100%);fill-opacity:1;" d="M 34.25 26.425781 C 34.25 26.085938 34.527344 25.808594 34.867188 25.808594 C 35.203125 25.808594 35.480469 26.085938 35.480469 26.425781 C 35.480469 26.769531 35.203125 27.042969 34.867188 27.042969 C 34.527344 27.042969 34.25 26.769531 34.25 26.425781 "/>
<path style="fill:none;stroke-width:6.89694;stroke-linecap:butt;stroke-linejoin:miter;stroke:rgb(13.72549%,12.156863%,12.54902%);stroke-opacity:1;stroke-miterlimit:2.6131;" d="M 1322.861553 909.548892 C 1322.861553 922.624894 1333.573593 933.296114 1346.699615 933.296114 C 1359.674762 933.296114 1370.386803 922.624894 1370.386803 909.548892 C 1370.386803 896.322592 1359.674762 885.801671 1346.699615 885.801671 C 1333.573593 885.801671 1322.861553 896.322592 1322.861553 909.548892 Z M 1322.861553 909.548892 " transform="matrix(0.0258908,0,0,-0.0259899,0,50.06485)"/>
<path style=" stroke:none;fill-rule:nonzero;fill:rgb(100%,100%,100%);fill-opacity:1;" d="M 34.359375 13.960938 C 34.359375 13.621094 34.632812 13.34375 34.972656 13.34375 C 35.3125 13.34375 35.589844 13.621094 35.589844 13.960938 C 35.589844 14.300781 35.3125 14.578125 34.972656 14.578125 C 34.632812 14.578125 34.359375 14.300781 34.359375 13.960938 "/>
<path style="fill:none;stroke-width:6.89694;stroke-linecap:butt;stroke-linejoin:miter;stroke:rgb(13.72549%,12.156863%,12.54902%);stroke-opacity:1;stroke-miterlimit:2.6131;" d="M 1327.086019 1389.152588 C 1327.086019 1402.228589 1337.647186 1412.899809 1350.773207 1412.899809 C 1363.899229 1412.899809 1374.611269 1402.228589 1374.611269 1389.152588 C 1374.611269 1376.076586 1363.899229 1365.405366 1350.773207 1365.405366 C 1337.647186 1365.405366 1327.086019 1376.076586 1327.086019 1389.152588 Z M 1327.086019 1389.152588 " transform="matrix(0.0258908,0,0,-0.0259899,0,50.06485)"/>
<path style=" stroke:none;fill-rule:nonzero;fill:rgb(100%,100%,100%);fill-opacity:1;" d="M 26.605469 23.316406 C 26.605469 22.976562 26.878906 22.699219 27.21875 22.699219 C 27.558594 22.699219 27.832031 22.976562 27.832031 23.316406 C 27.832031 23.65625 27.558594 23.933594 27.21875 23.933594 C 26.878906 23.933594 26.605469 23.65625 26.605469 23.316406 "/>
<path style="fill:none;stroke-width:6.89694;stroke-linecap:butt;stroke-linejoin:miter;stroke:rgb(13.72549%,12.156863%,12.54902%);stroke-opacity:1;stroke-miterlimit:2.6131;" d="M 1027.60151 1029.186793 C 1027.60151 1042.262795 1038.162676 1052.934015 1051.288698 1052.934015 C 1064.414719 1052.934015 1074.975886 1042.262795 1074.975886 1029.186793 C 1074.975886 1016.110791 1064.414719 1005.439572 1051.288698 1005.439572 C 1038.162676 1005.439572 1027.60151 1016.110791 1027.60151 1029.186793 Z M 1027.60151 1029.186793 " transform="matrix(0.0258908,0,0,-0.0259899,0,50.06485)"/>
<path style=" stroke:none;fill-rule:nonzero;fill:rgb(100%,100%,100%);fill-opacity:1;" d="M 28.414062 23.316406 C 28.414062 22.976562 28.6875 22.699219 29.027344 22.699219 C 29.367188 22.699219 29.640625 22.976562 29.640625 23.316406 C 29.640625 23.65625 29.367188 23.933594 29.027344 23.933594 C 28.6875 23.933594 28.414062 23.65625 28.414062 23.316406 "/>
<path style="fill:none;stroke-width:6.89694;stroke-linecap:butt;stroke-linejoin:miter;stroke:rgb(13.72549%,12.156863%,12.54902%);stroke-opacity:1;stroke-miterlimit:2.6131;" d="M 1097.456083 1029.186793 C 1097.456083 1042.262795 1108.01725 1052.934015 1121.143271 1052.934015 C 1134.269292 1052.934015 1144.830459 1042.262795 1144.830459 1029.186793 C 1144.830459 1016.110791 1134.269292 1005.439572 1121.143271 1005.439572 C 1108.01725 1005.439572 1097.456083 1016.110791 1097.456083 1029.186793 Z M 1097.456083 1029.186793 " transform="matrix(0.0258908,0,0,-0.0259899,0,50.06485)"/>
<path style=" stroke:none;fill-rule:nonzero;fill:rgb(100%,100%,100%);fill-opacity:1;" d="M 30.222656 23.316406 C 30.222656 22.976562 30.496094 22.699219 30.835938 22.699219 C 31.175781 22.699219 31.453125 22.976562 31.453125 23.316406 C 31.453125 23.65625 31.175781 23.933594 30.835938 23.933594 C 30.496094 23.933594 30.222656 23.65625 30.222656 23.316406 "/>
<path style="fill:none;stroke-width:6.89694;stroke-linecap:butt;stroke-linejoin:miter;stroke:rgb(13.72549%,12.156863%,12.54902%);stroke-opacity:1;stroke-miterlimit:2.6131;" d="M 1167.310656 1029.186793 C 1167.310656 1042.262795 1177.871823 1052.934015 1190.997844 1052.934015 C 1204.123866 1052.934015 1214.835906 1042.262795 1214.835906 1029.186793 C 1214.835906 1016.110791 1204.123866 1005.439572 1190.997844 1005.439572 C 1177.871823 1005.439572 1167.310656 1016.110791 1167.310656 1029.186793 Z M 1167.310656 1029.186793 " transform="matrix(0.0258908,0,0,-0.0259899,0,50.06485)"/>
<path style=" stroke:none;fill-rule:nonzero;fill:rgb(100%,100%,100%);fill-opacity:1;" d="M 32.03125 23.316406 C 32.03125 22.976562 32.308594 22.699219 32.644531 22.699219 C 32.984375 22.699219 33.261719 22.976562 33.261719 23.316406 C 33.261719 23.65625 32.984375 23.933594 32.644531 23.933594 C 32.308594 23.933594 32.03125 23.65625 32.03125 23.316406 "/>
<path style="fill:none;stroke-width:6.89694;stroke-linecap:butt;stroke-linejoin:miter;stroke:rgb(13.72549%,12.156863%,12.54902%);stroke-opacity:1;stroke-miterlimit:2.6131;" d="M 1237.16523 1029.186793 C 1237.16523 1042.262795 1247.87727 1052.934015 1261.003291 1052.934015 C 1273.978439 1052.934015 1284.690479 1042.262795 1284.690479 1029.186793 C 1284.690479 1016.110791 1273.978439 1005.439572 1261.003291 1005.439572 C 1247.87727 1005.439572 1237.16523 1016.110791 1237.16523 1029.186793 Z M 1237.16523 1029.186793 " transform="matrix(0.0258908,0,0,-0.0259899,0,50.06485)"/>
<path style=" stroke:none;fill-rule:nonzero;fill:rgb(100%,100%,100%);fill-opacity:1;" d="M 35.652344 23.316406 C 35.652344 22.976562 35.925781 22.699219 36.265625 22.699219 C 36.605469 22.699219 36.878906 22.976562 36.878906 23.316406 C 36.878906 23.65625 36.605469 23.933594 36.265625 23.933594 C 35.925781 23.933594 35.652344 23.65625 35.652344 23.316406 "/>
<path style="fill:none;stroke-width:6.89694;stroke-linecap:butt;stroke-linejoin:miter;stroke:rgb(13.72549%,12.156863%,12.54902%);stroke-opacity:1;stroke-miterlimit:2.6131;" d="M 1377.02525 1029.186793 C 1377.02525 1042.262795 1387.586417 1052.934015 1400.712438 1052.934015 C 1413.838459 1052.934015 1424.399626 1042.262795 1424.399626 1029.186793 C 1424.399626 1016.110791 1413.838459 1005.439572 1400.712438 1005.439572 C 1387.586417 1005.439572 1377.02525 1016.110791 1377.02525 1029.186793 Z M 1377.02525 1029.186793 " transform="matrix(0.0258908,0,0,-0.0259899,0,50.06485)"/>
<path style=" stroke:none;fill-rule:nonzero;fill:rgb(100%,100%,100%);fill-opacity:1;" d="M 37.460938 23.316406 C 37.460938 22.976562 37.734375 22.699219 38.074219 22.699219 C 38.414062 22.699219 38.6875 22.976562 38.6875 23.316406 C 38.6875 23.65625 38.414062 23.933594 38.074219 23.933594 C 37.734375 23.933594 37.460938 23.65625 37.460938 23.316406 "/>
<path style="fill:none;stroke-width:6.89694;stroke-linecap:butt;stroke-linejoin:miter;stroke:rgb(13.72549%,12.156863%,12.54902%);stroke-opacity:1;stroke-miterlimit:2.6131;" d="M 1446.879823 1029.186793 C 1446.879823 1042.262795 1457.44099 1052.934015 1470.567011 1052.934015 C 1483.693033 1052.934015 1494.254199 1042.262795 1494.254199 1029.186793 C 1494.254199 1016.110791 1483.693033 1005.439572 1470.567011 1005.439572 C 1457.44099 1005.439572 1446.879823 1016.110791 1446.879823 1029.186793 Z M 1446.879823 1029.186793 " transform="matrix(0.0258908,0,0,-0.0259899,0,50.06485)"/>
<path style=" stroke:none;fill-rule:nonzero;fill:rgb(100%,100%,100%);fill-opacity:1;" d="M 27.984375 24.871094 C 27.984375 24.53125 28.261719 24.253906 28.601562 24.253906 C 28.941406 24.253906 29.214844 24.53125 29.214844 24.871094 C 29.214844 25.214844 28.941406 25.488281 28.601562 25.488281 C 28.261719 25.488281 27.984375 25.214844 27.984375 24.871094 "/>
<path style="fill:none;stroke-width:6.89694;stroke-linecap:butt;stroke-linejoin:miter;stroke:rgb(13.72549%,12.156863%,12.54902%);stroke-opacity:1;stroke-miterlimit:2.6131;" d="M 1080.859964 969.367843 C 1080.859964 982.443844 1091.572004 993.115064 1104.698026 993.115064 C 1117.824047 993.115064 1128.385214 982.443844 1128.385214 969.367843 C 1128.385214 956.141542 1117.824047 945.620621 1104.698026 945.620621 C 1091.572004 945.620621 1080.859964 956.141542 1080.859964 969.367843 Z M 1080.859964 969.367843 " transform="matrix(0.0258908,0,0,-0.0259899,0,50.06485)"/>
<path style=" stroke:none;fill-rule:nonzero;fill:rgb(100%,100%,100%);fill-opacity:1;" d="M 29.796875 24.871094 C 29.796875 24.53125 30.070312 24.253906 30.410156 24.253906 C 30.75 24.253906 31.023438 24.53125 31.023438 24.871094 C 31.023438 25.214844 30.75 25.488281 30.410156 25.488281 C 30.070312 25.488281 29.796875 25.214844 29.796875 24.871094 "/>
<path style="fill:none;stroke-width:6.89694;stroke-linecap:butt;stroke-linejoin:miter;stroke:rgb(13.72549%,12.156863%,12.54902%);stroke-opacity:1;stroke-miterlimit:2.6131;" d="M 1150.865411 969.367843 C 1150.865411 982.443844 1161.426578 993.115064 1174.552599 993.115064 C 1187.67862 993.115064 1198.239787 982.443844 1198.239787 969.367843 C 1198.239787 956.141542 1187.67862 945.620621 1174.552599 945.620621 C 1161.426578 945.620621 1150.865411 956.141542 1150.865411 969.367843 Z M 1150.865411 969.367843 " transform="matrix(0.0258908,0,0,-0.0259899,0,50.06485)"/>
<path style=" stroke:none;fill-rule:nonzero;fill:rgb(100%,100%,100%);fill-opacity:1;" d="M 31.605469 24.871094 C 31.605469 24.53125 31.878906 24.253906 32.21875 24.253906 C 32.558594 24.253906 32.832031 24.53125 32.832031 24.871094 C 32.832031 25.214844 32.558594 25.488281 32.21875 25.488281 C 31.878906 25.488281 31.605469 25.214844 31.605469 24.871094 "/>
<path style="fill:none;stroke-width:6.89694;stroke-linecap:butt;stroke-linejoin:miter;stroke:rgb(13.72549%,12.156863%,12.54902%);stroke-opacity:1;stroke-miterlimit:2.6131;" d="M 1220.719985 969.367843 C 1220.719985 982.443844 1231.281151 993.115064 1244.407172 993.115064 C 1257.533194 993.115064 1268.09436 982.443844 1268.09436 969.367843 C 1268.09436 956.141542 1257.533194 945.620621 1244.407172 945.620621 C 1231.281151 945.620621 1220.719985 956.141542 1220.719985 969.367843 Z M 1220.719985 969.367843 " transform="matrix(0.0258908,0,0,-0.0259899,0,50.06485)"/>
<path style=" stroke:none;fill-rule:nonzero;fill:rgb(100%,100%,100%);fill-opacity:1;" d="M 35.222656 24.871094 C 35.222656 24.53125 35.5 24.253906 35.835938 24.253906 C 36.175781 24.253906 36.453125 24.53125 36.453125 24.871094 C 36.453125 25.214844 36.175781 25.488281 35.835938 25.488281 C 35.5 25.488281 35.222656 25.214844 35.222656 24.871094 "/>
<path style="fill:none;stroke-width:6.89694;stroke-linecap:butt;stroke-linejoin:miter;stroke:rgb(13.72549%,12.156863%,12.54902%);stroke-opacity:1;stroke-miterlimit:2.6131;" d="M 1360.429131 969.367843 C 1360.429131 982.443844 1371.141172 993.115064 1384.116319 993.115064 C 1397.24234 993.115064 1407.954381 982.443844 1407.954381 969.367843 C 1407.954381 956.141542 1397.24234 945.620621 1384.116319 945.620621 C 1371.141172 945.620621 1360.429131 956.141542 1360.429131 969.367843 Z M 1360.429131 969.367843 " transform="matrix(0.0258908,0,0,-0.0259899,0,50.06485)"/>
<path style=" stroke:none;fill-rule:nonzero;fill:rgb(100%,100%,100%);fill-opacity:1;" d="M 37.03125 24.871094 C 37.03125 24.53125 37.308594 24.253906 37.648438 24.253906 C 37.984375 24.253906 38.261719 24.53125 38.261719 24.871094 C 38.261719 25.214844 37.984375 25.488281 37.648438 25.488281 C 37.308594 25.488281 37.03125 25.214844 37.03125 24.871094 "/>
<path style="fill:none;stroke-width:6.89694;stroke-linecap:butt;stroke-linejoin:miter;stroke:rgb(13.72549%,12.156863%,12.54902%);stroke-opacity:1;stroke-miterlimit:2.6131;" d="M 1430.283704 969.367843 C 1430.283704 982.443844 1440.995745 993.115064 1454.121766 993.115064 C 1467.096914 993.115064 1477.808954 982.443844 1477.808954 969.367843 C 1477.808954 956.141542 1467.096914 945.620621 1454.121766 945.620621 C 1440.995745 945.620621 1430.283704 956.141542 1430.283704 969.367843 Z M 1430.283704 969.367843 " transform="matrix(0.0258908,0,0,-0.0259899,0,50.06485)"/>
<path style=" stroke:none;fill-rule:nonzero;fill:rgb(100%,100%,100%);fill-opacity:1;" d="M 27.195312 20.199219 C 27.195312 19.859375 27.472656 19.582031 27.8125 19.582031 C 28.148438 19.582031 28.425781 19.859375 28.425781 20.199219 C 28.425781 20.539062 28.148438 20.816406 27.8125 20.816406 C 27.472656 20.816406 27.195312 20.539062 27.195312 20.199219 "/>
<path style="fill:none;stroke-width:6.89694;stroke-linecap:butt;stroke-linejoin:miter;stroke:rgb(13.72549%,12.156863%,12.54902%);stroke-opacity:1;stroke-miterlimit:2.6131;" d="M 1050.383455 1149.125292 C 1050.383455 1162.201293 1061.095495 1172.872513 1074.221516 1172.872513 C 1087.196664 1172.872513 1097.908704 1162.201293 1097.908704 1149.125292 C 1097.908704 1136.04929 1087.196664 1125.37807 1074.221516 1125.37807 C 1061.095495 1125.37807 1050.383455 1136.04929 1050.383455 1149.125292 Z M 1050.383455 1149.125292 " transform="matrix(0.0258908,0,0,-0.0259899,0,50.06485)"/>
<path style=" stroke:none;fill-rule:nonzero;fill:rgb(100%,100%,100%);fill-opacity:1;" d="M 29.003906 20.199219 C 29.003906 19.859375 29.28125 19.582031 29.621094 19.582031 C 29.960938 19.582031 30.234375 19.859375 30.234375 20.199219 C 30.234375 20.539062 29.960938 20.816406 29.621094 20.816406 C 29.28125 20.816406 29.003906 20.539062 29.003906 20.199219 "/>
<path style="fill:none;stroke-width:6.89694;stroke-linecap:butt;stroke-linejoin:miter;stroke:rgb(13.72549%,12.156863%,12.54902%);stroke-opacity:1;stroke-miterlimit:2.6131;" d="M 1120.238028 1149.125292 C 1120.238028 1162.201293 1130.950068 1172.872513 1144.07609 1172.872513 C 1157.202111 1172.872513 1167.763278 1162.201293 1167.763278 1149.125292 C 1167.763278 1136.04929 1157.202111 1125.37807 1144.07609 1125.37807 C 1130.950068 1125.37807 1120.238028 1136.04929 1120.238028 1149.125292 Z M 1120.238028 1149.125292 " transform="matrix(0.0258908,0,0,-0.0259899,0,50.06485)"/>
<path style=" stroke:none;fill-rule:nonzero;fill:rgb(100%,100%,100%);fill-opacity:1;" d="M 30.816406 20.199219 C 30.816406 19.859375 31.089844 19.582031 31.429688 19.582031 C 31.769531 19.582031 32.042969 19.859375 32.042969 20.199219 C 32.042969 20.539062 31.769531 20.816406 31.429688 20.816406 C 31.089844 20.816406 30.816406 20.539062 30.816406 20.199219 "/>
<path style="fill:none;stroke-width:6.89694;stroke-linecap:butt;stroke-linejoin:miter;stroke:rgb(13.72549%,12.156863%,12.54902%);stroke-opacity:1;stroke-miterlimit:2.6131;" d="M 1190.243475 1149.125292 C 1190.243475 1162.201293 1200.804642 1172.872513 1213.930663 1172.872513 C 1227.056684 1172.872513 1237.617851 1162.201293 1237.617851 1149.125292 C 1237.617851 1136.04929 1227.056684 1125.37807 1213.930663 1125.37807 C 1200.804642 1125.37807 1190.243475 1136.04929 1190.243475 1149.125292 Z M 1190.243475 1149.125292 " transform="matrix(0.0258908,0,0,-0.0259899,0,50.06485)"/>
<path style=" stroke:none;fill-rule:nonzero;fill:rgb(100%,100%,100%);fill-opacity:1;" d="M 34.433594 20.199219 C 34.433594 19.859375 34.707031 19.582031 35.046875 19.582031 C 35.386719 19.582031 35.664062 19.859375 35.664062 20.199219 C 35.664062 20.539062 35.386719 20.816406 35.046875 20.816406 C 34.707031 20.816406 34.433594 20.539062 34.433594 20.199219 "/>
<path style="fill:none;stroke-width:6.89694;stroke-linecap:butt;stroke-linejoin:miter;stroke:rgb(13.72549%,12.156863%,12.54902%);stroke-opacity:1;stroke-miterlimit:2.6131;" d="M 1329.952622 1149.125292 C 1329.952622 1162.201293 1340.513788 1172.872513 1353.63981 1172.872513 C 1366.765831 1172.872513 1377.477872 1162.201293 1377.477872 1149.125292 C 1377.477872 1136.04929 1366.765831 1125.37807 1353.63981 1125.37807 C 1340.513788 1125.37807 1329.952622 1136.04929 1329.952622 1149.125292 Z M 1329.952622 1149.125292 " transform="matrix(0.0258908,0,0,-0.0259899,0,50.06485)"/>
<path style=" stroke:none;fill-rule:nonzero;fill:rgb(100%,100%,100%);fill-opacity:1;" d="M 36.242188 20.199219 C 36.242188 19.859375 36.519531 19.582031 36.855469 19.582031 C 37.195312 19.582031 37.472656 19.859375 37.472656 20.199219 C 37.472656 20.539062 37.195312 20.816406 36.855469 20.816406 C 36.519531 20.816406 36.242188 20.539062 36.242188 20.199219 "/>
<path style="fill:none;stroke-width:6.89694;stroke-linecap:butt;stroke-linejoin:miter;stroke:rgb(13.72549%,12.156863%,12.54902%);stroke-opacity:1;stroke-miterlimit:2.6131;" d="M 1399.807195 1149.125292 C 1399.807195 1162.201293 1410.519236 1172.872513 1423.645257 1172.872513 C 1436.620404 1172.872513 1447.332445 1162.201293 1447.332445 1149.125292 C 1447.332445 1136.04929 1436.620404 1125.37807 1423.645257 1125.37807 C 1410.519236 1125.37807 1399.807195 1136.04929 1399.807195 1149.125292 Z M 1399.807195 1149.125292 " transform="matrix(0.0258908,0,0,-0.0259899,0,50.06485)"/>
<path style=" stroke:none;fill-rule:nonzero;fill:rgb(100%,100%,100%);fill-opacity:1;" d="M 38.050781 20.199219 C 38.050781 19.859375 38.328125 19.582031 38.667969 19.582031 C 39.007812 19.582031 39.28125 19.859375 39.28125 20.199219 C 39.28125 20.539062 39.007812 20.816406 38.667969 20.816406 C 38.328125 20.816406 38.050781 20.539062 38.050781 20.199219 "/>
<path style="fill:none;stroke-width:6.89694;stroke-linecap:butt;stroke-linejoin:miter;stroke:rgb(13.72549%,12.156863%,12.54902%);stroke-opacity:1;stroke-miterlimit:2.6131;" d="M 1469.661769 1149.125292 C 1469.661769 1162.201293 1480.373809 1172.872513 1493.49983 1172.872513 C 1506.625852 1172.872513 1517.187018 1162.201293 1517.187018 1149.125292 C 1517.187018 1136.04929 1506.625852 1125.37807 1493.49983 1125.37807 C 1480.373809 1125.37807 1469.661769 1136.04929 1469.661769 1149.125292 Z M 1469.661769 1149.125292 " transform="matrix(0.0258908,0,0,-0.0259899,0,50.06485)"/>
<path style=" stroke:none;fill-rule:nonzero;fill:rgb(100%,100%,100%);fill-opacity:1;" d="M 26.324219 21.753906 C 26.324219 21.414062 26.597656 21.136719 26.9375 21.136719 C 27.277344 21.136719 27.554688 21.414062 27.554688 21.753906 C 27.554688 22.09375 27.277344 22.371094 26.9375 22.371094 C 26.597656 22.371094 26.324219 22.09375 26.324219 21.753906 "/>
<path style="fill:none;stroke-width:6.89694;stroke-linecap:butt;stroke-linejoin:miter;stroke:rgb(13.72549%,12.156863%,12.54902%);stroke-opacity:1;stroke-miterlimit:2.6131;" d="M 1016.738595 1089.306341 C 1016.738595 1102.382343 1027.299762 1113.053563 1040.425783 1113.053563 C 1053.551805 1113.053563 1064.263845 1102.382343 1064.263845 1089.306341 C 1064.263845 1076.23034 1053.551805 1065.55912 1040.425783 1065.55912 C 1027.299762 1065.55912 1016.738595 1076.23034 1016.738595 1089.306341 Z M 1016.738595 1089.306341 " transform="matrix(0.0258908,0,0,-0.0259899,0,50.06485)"/>
<path style=" stroke:none;fill-rule:nonzero;fill:rgb(100%,100%,100%);fill-opacity:1;" d="M 28.132812 21.753906 C 28.132812 21.414062 28.410156 21.136719 28.75 21.136719 C 29.085938 21.136719 29.363281 21.414062 29.363281 21.753906 C 29.363281 22.09375 29.085938 22.371094 28.75 22.371094 C 28.410156 22.371094 28.132812 22.09375 28.132812 21.753906 "/>
<path style="fill:none;stroke-width:6.89694;stroke-linecap:butt;stroke-linejoin:miter;stroke:rgb(13.72549%,12.156863%,12.54902%);stroke-opacity:1;stroke-miterlimit:2.6131;" d="M 1086.593169 1089.306341 C 1086.593169 1102.382343 1097.305209 1113.053563 1110.43123 1113.053563 C 1123.406378 1113.053563 1134.118418 1102.382343 1134.118418 1089.306341 C 1134.118418 1076.23034 1123.406378 1065.55912 1110.43123 1065.55912 C 1097.305209 1065.55912 1086.593169 1076.23034 1086.593169 1089.306341 Z M 1086.593169 1089.306341 " transform="matrix(0.0258908,0,0,-0.0259899,0,50.06485)"/>
<path style=" stroke:none;fill-rule:nonzero;fill:rgb(100%,100%,100%);fill-opacity:1;" d="M 29.941406 21.753906 C 29.941406 21.414062 30.21875 21.136719 30.558594 21.136719 C 30.898438 21.136719 31.171875 21.414062 31.171875 21.753906 C 31.171875 22.09375 30.898438 22.371094 30.558594 22.371094 C 30.21875 22.371094 29.941406 22.09375 29.941406 21.753906 "/>
<path style="fill:none;stroke-width:6.89694;stroke-linecap:butt;stroke-linejoin:miter;stroke:rgb(13.72549%,12.156863%,12.54902%);stroke-opacity:1;stroke-miterlimit:2.6131;" d="M 1156.447742 1089.306341 C 1156.447742 1102.382343 1167.159782 1113.053563 1180.285804 1113.053563 C 1193.411825 1113.053563 1203.972992 1102.382343 1203.972992 1089.306341 C 1203.972992 1076.23034 1193.411825 1065.55912 1180.285804 1065.55912 C 1167.159782 1065.55912 1156.447742 1076.23034 1156.447742 1089.306341 Z M 1156.447742 1089.306341 " transform="matrix(0.0258908,0,0,-0.0259899,0,50.06485)"/>
<path style=" stroke:none;fill-rule:nonzero;fill:rgb(100%,100%,100%);fill-opacity:1;" d="M 31.753906 21.753906 C 31.753906 21.414062 32.027344 21.136719 32.367188 21.136719 C 32.707031 21.136719 32.980469 21.414062 32.980469 21.753906 C 32.980469 22.09375 32.707031 22.371094 32.367188 22.371094 C 32.027344 22.371094 31.753906 22.09375 31.753906 21.753906 "/>
<path style="fill:none;stroke-width:6.89694;stroke-linecap:butt;stroke-linejoin:miter;stroke:rgb(13.72549%,12.156863%,12.54902%);stroke-opacity:1;stroke-miterlimit:2.6131;" d="M 1226.453189 1089.306341 C 1226.453189 1102.382343 1237.014356 1113.053563 1250.140377 1113.053563 C 1263.266398 1113.053563 1273.827565 1102.382343 1273.827565 1089.306341 C 1273.827565 1076.23034 1263.266398 1065.55912 1250.140377 1065.55912 C 1237.014356 1065.55912 1226.453189 1076.23034 1226.453189 1089.306341 Z M 1226.453189 1089.306341 " transform="matrix(0.0258908,0,0,-0.0259899,0,50.06485)"/>
<path style=" stroke:none;fill-rule:nonzero;fill:rgb(100%,100%,100%);fill-opacity:1;" d="M 35.371094 21.753906 C 35.371094 21.414062 35.644531 21.136719 35.984375 21.136719 C 36.324219 21.136719 36.601562 21.414062 36.601562 21.753906 C 36.601562 22.09375 36.324219 22.371094 35.984375 22.371094 C 35.644531 22.371094 35.371094 22.09375 35.371094 21.753906 "/>
<path style="fill:none;stroke-width:6.89694;stroke-linecap:butt;stroke-linejoin:miter;stroke:rgb(13.72549%,12.156863%,12.54902%);stroke-opacity:1;stroke-miterlimit:2.6131;" d="M 1366.162336 1089.306341 C 1366.162336 1102.382343 1376.723502 1113.053563 1389.849524 1113.053563 C 1402.975545 1113.053563 1413.687586 1102.382343 1413.687586 1089.306341 C 1413.687586 1076.23034 1402.975545 1065.55912 1389.849524 1065.55912 C 1376.723502 1065.55912 1366.162336 1076.23034 1366.162336 1089.306341 Z M 1366.162336 1089.306341 " transform="matrix(0.0258908,0,0,-0.0259899,0,50.06485)"/>
<path style=" stroke:none;fill-rule:nonzero;fill:rgb(100%,100%,100%);fill-opacity:1;" d="M 37.179688 21.753906 C 37.179688 21.414062 37.457031 21.136719 37.792969 21.136719 C 38.132812 21.136719 38.410156 21.414062 38.410156 21.753906 C 38.410156 22.09375 38.132812 22.371094 37.792969 22.371094 C 37.457031 22.371094 37.179688 22.09375 37.179688 21.753906 "/>
<path style="fill:none;stroke-width:6.89694;stroke-linecap:butt;stroke-linejoin:miter;stroke:rgb(13.72549%,12.156863%,12.54902%);stroke-opacity:1;stroke-miterlimit:2.6131;" d="M 1436.016909 1089.306341 C 1436.016909 1102.382343 1446.72895 1113.053563 1459.854971 1113.053563 C 1472.830118 1113.053563 1483.542159 1102.382343 1483.542159 1089.306341 C 1483.542159 1076.23034 1472.830118 1065.55912 1459.854971 1065.55912 C 1446.72895 1065.55912 1436.016909 1076.23034 1436.016909 1089.306341 Z M 1436.016909 1089.306341 " transform="matrix(0.0258908,0,0,-0.0259899,0,50.06485)"/>
<path style=" stroke:none;fill-rule:nonzero;fill:rgb(100%,100%,100%);fill-opacity:1;" d="M 38.988281 21.753906 C 38.988281 21.414062 39.265625 21.136719 39.605469 21.136719 C 39.945312 21.136719 40.21875 21.414062 40.21875 21.753906 C 40.21875 22.09375 39.945312 22.371094 39.605469 22.371094 C 39.265625 22.371094 38.988281 22.09375 38.988281 21.753906 "/>
<path style="fill:none;stroke-width:6.89694;stroke-linecap:butt;stroke-linejoin:miter;stroke:rgb(13.72549%,12.156863%,12.54902%);stroke-opacity:1;stroke-miterlimit:2.6131;" d="M 1505.871483 1089.306341 C 1505.871483 1102.382343 1516.583523 1113.053563 1529.709544 1113.053563 C 1542.835566 1113.053563 1553.396732 1102.382343 1553.396732 1089.306341 C 1553.396732 1076.23034 1542.835566 1065.55912 1529.709544 1065.55912 C 1516.583523 1065.55912 1505.871483 1076.23034 1505.871483 1089.306341 Z M 1505.871483 1089.306341 " transform="matrix(0.0258908,0,0,-0.0259899,0,50.06485)"/>
<path style=" stroke:none;fill-rule:nonzero;fill:rgb(100%,100%,100%);fill-opacity:1;" d="M 27.664062 17.082031 C 27.664062 16.738281 27.941406 16.464844 28.28125 16.464844 C 28.621094 16.464844 28.894531 16.738281 28.894531 17.082031 C 28.894531 17.421875 28.621094 17.695312 28.28125 17.695312 C 27.941406 17.695312 27.664062 17.421875 27.664062 17.082031 "/>
<path style="fill:none;stroke-width:6.89694;stroke-linecap:butt;stroke-linejoin:miter;stroke:rgb(13.72549%,12.156863%,12.54902%);stroke-opacity:1;stroke-miterlimit:2.6131;" d="M 1068.488312 1269.214089 C 1068.488312 1282.290091 1079.200352 1292.811012 1092.326373 1292.811012 C 1105.301521 1292.811012 1116.013561 1282.290091 1116.013561 1269.214089 C 1116.013561 1255.987789 1105.301521 1245.466868 1092.326373 1245.466868 C 1079.200352 1245.466868 1068.488312 1255.987789 1068.488312 1269.214089 Z M 1068.488312 1269.214089 " transform="matrix(0.0258908,0,0,-0.0259899,0,50.06485)"/>
<path style=" stroke:none;fill-rule:nonzero;fill:rgb(100%,100%,100%);fill-opacity:1;" d="M 29.476562 17.082031 C 29.476562 16.738281 29.75 16.464844 30.089844 16.464844 C 30.429688 16.464844 30.703125 16.738281 30.703125 17.082031 C 30.703125 17.421875 30.429688 17.695312 30.089844 17.695312 C 29.75 17.695312 29.476562 17.421875 29.476562 17.082031 "/>
<path style="fill:none;stroke-width:6.89694;stroke-linecap:butt;stroke-linejoin:miter;stroke:rgb(13.72549%,12.156863%,12.54902%);stroke-opacity:1;stroke-miterlimit:2.6131;" d="M 1138.493759 1269.214089 C 1138.493759 1282.290091 1149.054925 1292.811012 1162.180947 1292.811012 C 1175.306968 1292.811012 1185.868135 1282.290091 1185.868135 1269.214089 C 1185.868135 1255.987789 1175.306968 1245.466868 1162.180947 1245.466868 C 1149.054925 1245.466868 1138.493759 1255.987789 1138.493759 1269.214089 Z M 1138.493759 1269.214089 " transform="matrix(0.0258908,0,0,-0.0259899,0,50.06485)"/>
<path style=" stroke:none;fill-rule:nonzero;fill:rgb(100%,100%,100%);fill-opacity:1;" d="M 33.09375 17.082031 C 33.09375 16.738281 33.367188 16.464844 33.707031 16.464844 C 34.046875 16.464844 34.320312 16.738281 34.320312 17.082031 C 34.320312 17.421875 34.046875 17.695312 33.707031 17.695312 C 33.367188 17.695312 33.09375 17.421875 33.09375 17.082031 "/>
<path style="fill:none;stroke-width:6.89694;stroke-linecap:butt;stroke-linejoin:miter;stroke:rgb(13.72549%,12.156863%,12.54902%);stroke-opacity:1;stroke-miterlimit:2.6131;" d="M 1278.202906 1269.214089 C 1278.202906 1282.290091 1288.764072 1292.811012 1301.890093 1292.811012 C 1315.016115 1292.811012 1325.577281 1282.290091 1325.577281 1269.214089 C 1325.577281 1255.987789 1315.016115 1245.466868 1301.890093 1245.466868 C 1288.764072 1245.466868 1278.202906 1255.987789 1278.202906 1269.214089 Z M 1278.202906 1269.214089 " transform="matrix(0.0258908,0,0,-0.0259899,0,50.06485)"/>
<path style=" stroke:none;fill-rule:nonzero;fill:rgb(100%,100%,100%);fill-opacity:1;" d="M 34.902344 17.082031 C 34.902344 16.738281 35.179688 16.464844 35.515625 16.464844 C 35.855469 16.464844 36.132812 16.738281 36.132812 17.082031 C 36.132812 17.421875 35.855469 17.695312 35.515625 17.695312 C 35.179688 17.695312 34.902344 17.421875 34.902344 17.082031 "/>
<path style="fill:none;stroke-width:6.89694;stroke-linecap:butt;stroke-linejoin:miter;stroke:rgb(13.72549%,12.156863%,12.54902%);stroke-opacity:1;stroke-miterlimit:2.6131;" d="M 1348.057479 1269.214089 C 1348.057479 1282.290091 1358.769519 1292.811012 1371.744667 1292.811012 C 1384.870688 1292.811012 1395.582729 1282.290091 1395.582729 1269.214089 C 1395.582729 1255.987789 1384.870688 1245.466868 1371.744667 1245.466868 C 1358.769519 1245.466868 1348.057479 1255.987789 1348.057479 1269.214089 Z M 1348.057479 1269.214089 " transform="matrix(0.0258908,0,0,-0.0259899,0,50.06485)"/>
<path style=" stroke:none;fill-rule:nonzero;fill:rgb(100%,100%,100%);fill-opacity:1;" d="M 36.710938 17.082031 C 36.710938 16.738281 36.988281 16.464844 37.328125 16.464844 C 37.664062 16.464844 37.941406 16.738281 37.941406 17.082031 C 37.941406 17.421875 37.664062 17.695312 37.328125 17.695312 C 36.988281 17.695312 36.710938 17.421875 36.710938 17.082031 "/>
<path style="fill:none;stroke-width:6.89694;stroke-linecap:butt;stroke-linejoin:miter;stroke:rgb(13.72549%,12.156863%,12.54902%);stroke-opacity:1;stroke-miterlimit:2.6131;" d="M 1417.912052 1269.214089 C 1417.912052 1282.290091 1428.624093 1292.811012 1441.750114 1292.811012 C 1454.725261 1292.811012 1465.437302 1282.290091 1465.437302 1269.214089 C 1465.437302 1255.987789 1454.725261 1245.466868 1441.750114 1245.466868 C 1428.624093 1245.466868 1417.912052 1255.987789 1417.912052 1269.214089 Z M 1417.912052 1269.214089 " transform="matrix(0.0258908,0,0,-0.0259899,0,50.06485)"/>
<path style=" stroke:none;fill-rule:nonzero;fill:rgb(100%,100%,100%);fill-opacity:1;" d="M 28.058594 15.519531 C 28.058594 15.179688 28.332031 14.902344 28.671875 14.902344 C 29.011719 14.902344 29.285156 15.179688 29.285156 15.519531 C 29.285156 15.859375 29.011719 16.136719 28.671875 16.136719 C 28.332031 16.136719 28.058594 15.859375 28.058594 15.519531 "/>
<path style="fill:none;stroke-width:6.89694;stroke-linecap:butt;stroke-linejoin:miter;stroke:rgb(13.72549%,12.156863%,12.54902%);stroke-opacity:1;stroke-miterlimit:2.6131;" d="M 1083.726566 1329.183338 C 1083.726566 1342.25934 1094.287733 1352.93056 1107.413754 1352.93056 C 1120.539776 1352.93056 1131.100942 1342.25934 1131.100942 1329.183338 C 1131.100942 1316.107337 1120.539776 1305.436117 1107.413754 1305.436117 C 1094.287733 1305.436117 1083.726566 1316.107337 1083.726566 1329.183338 Z M 1083.726566 1329.183338 " transform="matrix(0.0258908,0,0,-0.0259899,0,50.06485)"/>
<path style=" stroke:none;fill-rule:nonzero;fill:rgb(100%,100%,100%);fill-opacity:1;" d="M 29.867188 15.519531 C 29.867188 15.179688 30.140625 14.902344 30.480469 14.902344 C 30.820312 14.902344 31.09375 15.179688 31.09375 15.519531 C 31.09375 15.859375 30.820312 16.136719 30.480469 16.136719 C 30.140625 16.136719 29.867188 15.859375 29.867188 15.519531 "/>
<path style="fill:none;stroke-width:6.89694;stroke-linecap:butt;stroke-linejoin:miter;stroke:rgb(13.72549%,12.156863%,12.54902%);stroke-opacity:1;stroke-miterlimit:2.6131;" d="M 1153.58114 1329.183338 C 1153.58114 1342.25934 1164.142306 1352.93056 1177.268328 1352.93056 C 1190.394349 1352.93056 1200.955516 1342.25934 1200.955516 1329.183338 C 1200.955516 1316.107337 1190.394349 1305.436117 1177.268328 1305.436117 C 1164.142306 1305.436117 1153.58114 1316.107337 1153.58114 1329.183338 Z M 1153.58114 1329.183338 " transform="matrix(0.0258908,0,0,-0.0259899,0,50.06485)"/>
<path style=" stroke:none;fill-rule:nonzero;fill:rgb(100%,100%,100%);fill-opacity:1;" d="M 33.484375 15.519531 C 33.484375 15.179688 33.761719 14.902344 34.101562 14.902344 C 34.4375 14.902344 34.714844 15.179688 34.714844 15.519531 C 34.714844 15.859375 34.4375 16.136719 34.101562 16.136719 C 33.761719 16.136719 33.484375 15.859375 33.484375 15.519531 "/>
<path style="fill:none;stroke-width:6.89694;stroke-linecap:butt;stroke-linejoin:miter;stroke:rgb(13.72549%,12.156863%,12.54902%);stroke-opacity:1;stroke-miterlimit:2.6131;" d="M 1293.290286 1329.183338 C 1293.290286 1342.25934 1304.002327 1352.93056 1316.977474 1352.93056 C 1330.103496 1352.93056 1340.815536 1342.25934 1340.815536 1329.183338 C 1340.815536 1316.107337 1330.103496 1305.436117 1316.977474 1305.436117 C 1304.002327 1305.436117 1293.290286 1316.107337 1293.290286 1329.183338 Z M 1293.290286 1329.183338 " transform="matrix(0.0258908,0,0,-0.0259899,0,50.06485)"/>
<path style=" stroke:none;fill-rule:nonzero;fill:rgb(100%,100%,100%);fill-opacity:1;" d="M 35.292969 15.519531 C 35.292969 15.179688 35.570312 14.902344 35.910156 14.902344 C 36.25 14.902344 36.523438 15.179688 36.523438 15.519531 C 36.523438 15.859375 36.25 16.136719 35.910156 16.136719 C 35.570312 16.136719 35.292969 15.859375 35.292969 15.519531 "/>
<path style="fill:none;stroke-width:6.89694;stroke-linecap:butt;stroke-linejoin:miter;stroke:rgb(13.72549%,12.156863%,12.54902%);stroke-opacity:1;stroke-miterlimit:2.6131;" d="M 1363.14486 1329.183338 C 1363.14486 1342.25934 1373.8569 1352.93056 1386.982921 1352.93056 C 1400.108943 1352.93056 1410.670109 1342.25934 1410.670109 1329.183338 C 1410.670109 1316.107337 1400.108943 1305.436117 1386.982921 1305.436117 C 1373.8569 1305.436117 1363.14486 1316.107337 1363.14486 1329.183338 Z M 1363.14486 1329.183338 " transform="matrix(0.0258908,0,0,-0.0259899,0,50.06485)"/>
<path style=" stroke:none;fill-rule:nonzero;fill:rgb(100%,100%,100%);fill-opacity:1;" d="M 37.105469 15.519531 C 37.105469 15.179688 37.378906 14.902344 37.71875 14.902344 C 38.058594 14.902344 38.332031 15.179688 38.332031 15.519531 C 38.332031 15.859375 38.058594 16.136719 37.71875 16.136719 C 37.378906 16.136719 37.105469 15.859375 37.105469 15.519531 "/>
<path style="fill:none;stroke-width:6.89694;stroke-linecap:butt;stroke-linejoin:miter;stroke:rgb(13.72549%,12.156863%,12.54902%);stroke-opacity:1;stroke-miterlimit:2.6131;" d="M 1433.150307 1329.183338 C 1433.150307 1342.25934 1443.711473 1352.93056 1456.837495 1352.93056 C 1469.963516 1352.93056 1480.524683 1342.25934 1480.524683 1329.183338 C 1480.524683 1316.107337 1469.963516 1305.436117 1456.837495 1305.436117 C 1443.711473 1305.436117 1433.150307 1316.107337 1433.150307 1329.183338 Z M 1433.150307 1329.183338 " transform="matrix(0.0258908,0,0,-0.0259899,0,50.06485)"/>
<path style=" stroke:none;fill-rule:nonzero;fill:rgb(100%,100%,100%);fill-opacity:1;" d="M 26.089844 18.644531 C 26.089844 18.304688 26.363281 18.027344 26.703125 18.027344 C 27.042969 18.027344 27.316406 18.304688 27.316406 18.644531 C 27.316406 18.984375 27.042969 19.261719 26.703125 19.261719 C 26.363281 19.261719 26.089844 18.984375 26.089844 18.644531 "/>
<path style="fill:none;stroke-width:6.89694;stroke-linecap:butt;stroke-linejoin:miter;stroke:rgb(13.72549%,12.156863%,12.54902%);stroke-opacity:1;stroke-miterlimit:2.6131;" d="M 1007.686167 1208.944242 C 1007.686167 1222.020244 1018.247334 1232.691464 1031.373355 1232.691464 C 1044.499376 1232.691464 1055.060543 1222.020244 1055.060543 1208.944242 C 1055.060543 1195.86824 1044.499376 1185.197021 1031.373355 1185.197021 C 1018.247334 1185.197021 1007.686167 1195.86824 1007.686167 1208.944242 Z M 1007.686167 1208.944242 " transform="matrix(0.0258908,0,0,-0.0259899,0,50.06485)"/>
<path style=" stroke:none;fill-rule:nonzero;fill:rgb(100%,100%,100%);fill-opacity:1;" d="M 27.898438 18.644531 C 27.898438 18.304688 28.171875 18.027344 28.511719 18.027344 C 28.851562 18.027344 29.125 18.304688 29.125 18.644531 C 29.125 18.984375 28.851562 19.261719 28.511719 19.261719 C 28.171875 19.261719 27.898438 18.984375 27.898438 18.644531 "/>
<path style="fill:none;stroke-width:6.89694;stroke-linecap:butt;stroke-linejoin:miter;stroke:rgb(13.72549%,12.156863%,12.54902%);stroke-opacity:1;stroke-miterlimit:2.6131;" d="M 1077.54074 1208.944242 C 1077.54074 1222.020244 1088.101907 1232.691464 1101.227928 1232.691464 C 1114.35395 1232.691464 1124.915116 1222.020244 1124.915116 1208.944242 C 1124.915116 1195.86824 1114.35395 1185.197021 1101.227928 1185.197021 C 1088.101907 1185.197021 1077.54074 1195.86824 1077.54074 1208.944242 Z M 1077.54074 1208.944242 " transform="matrix(0.0258908,0,0,-0.0259899,0,50.06485)"/>
<path style=" stroke:none;fill-rule:nonzero;fill:rgb(100%,100%,100%);fill-opacity:1;" d="M 29.707031 18.644531 C 29.707031 18.304688 29.980469 18.027344 30.320312 18.027344 C 30.660156 18.027344 30.9375 18.304688 30.9375 18.644531 C 30.9375 18.984375 30.660156 19.261719 30.320312 19.261719 C 29.980469 19.261719 29.707031 18.984375 29.707031 18.644531 "/>
<path style="fill:none;stroke-width:6.89694;stroke-linecap:butt;stroke-linejoin:miter;stroke:rgb(13.72549%,12.156863%,12.54902%);stroke-opacity:1;stroke-miterlimit:2.6131;" d="M 1147.395314 1208.944242 C 1147.395314 1222.020244 1157.95648 1232.691464 1171.082502 1232.691464 C 1184.208523 1232.691464 1194.920563 1222.020244 1194.920563 1208.944242 C 1194.920563 1195.86824 1184.208523 1185.197021 1171.082502 1185.197021 C 1157.95648 1185.197021 1147.395314 1195.86824 1147.395314 1208.944242 Z M 1147.395314 1208.944242 " transform="matrix(0.0258908,0,0,-0.0259899,0,50.06485)"/>
<path style=" stroke:none;fill-rule:nonzero;fill:rgb(13.72549%,12.156863%,12.54902%);fill-opacity:1;" d="M 32.550781 13.960938 C 32.550781 13.621094 32.824219 13.34375 33.164062 13.34375 C 33.503906 13.34375 33.777344 13.621094 33.777344 13.960938 C 33.777344 14.300781 33.503906 14.578125 33.164062 14.578125 C 32.824219 14.578125 32.550781 14.300781 32.550781 13.960938 "/>
<path style=" stroke:none;fill-rule:nonzero;fill:rgb(13.72549%,12.156863%,12.54902%);fill-opacity:1;" d="M 32.441406 26.425781 C 32.441406 26.085938 32.71875 25.808594 33.054688 25.808594 C 33.394531 25.808594 33.671875 26.085938 33.671875 26.425781 C 33.671875 26.769531 33.394531 27.042969 33.054688 27.042969 C 32.71875 27.042969 32.441406 26.769531 32.441406 26.425781 "/>
<path style=" stroke:none;fill-rule:nonzero;fill:rgb(13.72549%,12.156863%,12.54902%);fill-opacity:1;" d="M 33.839844 23.316406 C 33.839844 22.976562 34.117188 22.699219 34.457031 22.699219 C 34.796875 22.699219 35.070312 22.976562 35.070312 23.316406 C 35.070312 23.65625 34.796875 23.933594 34.457031 23.933594 C 34.117188 23.933594 33.839844 23.65625 33.839844 23.316406 "/>
<path style=" stroke:none;fill-rule:nonzero;fill:rgb(13.72549%,12.156863%,12.54902%);fill-opacity:1;" d="M 33.414062 24.871094 C 33.414062 24.53125 33.6875 24.253906 34.027344 24.253906 C 34.367188 24.253906 34.644531 24.53125 34.644531 24.871094 C 34.644531 25.214844 34.367188 25.488281 34.027344 25.488281 C 33.6875 25.488281 33.414062 25.214844 33.414062 24.871094 "/>
<path style=" stroke:none;fill-rule:nonzero;fill:rgb(13.72549%,12.156863%,12.54902%);fill-opacity:1;" d="M 32.625 20.199219 C 32.625 19.859375 32.898438 19.582031 33.238281 19.582031 C 33.578125 19.582031 33.851562 19.859375 33.851562 20.199219 C 33.851562 20.539062 33.578125 20.816406 33.238281 20.816406 C 32.898438 20.816406 32.625 20.539062 32.625 20.199219 "/>
<path style=" stroke:none;fill-rule:nonzero;fill:rgb(13.72549%,12.156863%,12.54902%);fill-opacity:1;" d="M 33.5625 21.753906 C 33.5625 21.414062 33.835938 21.136719 34.175781 21.136719 C 34.515625 21.136719 34.789062 21.414062 34.789062 21.753906 C 34.789062 22.09375 34.515625 22.371094 34.175781 22.371094 C 33.835938 22.371094 33.5625 22.09375 33.5625 21.753906 "/>
<path style=" stroke:none;fill-rule:nonzero;fill:rgb(13.72549%,12.156863%,12.54902%);fill-opacity:1;" d="M 31.285156 17.082031 C 31.285156 16.738281 31.558594 16.464844 31.898438 16.464844 C 32.238281 16.464844 32.511719 16.738281 32.511719 17.082031 C 32.511719 17.421875 32.238281 17.695312 31.898438 17.695312 C 31.558594 17.695312 31.285156 17.421875 31.285156 17.082031 "/>
<path style=" stroke:none;fill-rule:nonzero;fill:rgb(13.72549%,12.156863%,12.54902%);fill-opacity:1;" d="M 31.675781 15.519531 C 31.675781 15.179688 31.949219 14.902344 32.289062 14.902344 C 32.628906 14.902344 32.90625 15.179688 32.90625 15.519531 C 32.90625 15.859375 32.628906 16.136719 32.289062 16.136719 C 31.949219 16.136719 31.675781 15.859375 31.675781 15.519531 "/>
<path style=" stroke:none;fill-rule:nonzero;fill:rgb(13.72549%,12.156863%,12.54902%);fill-opacity:1;" d="M 31.515625 18.644531 C 31.515625 18.304688 31.792969 18.027344 32.128906 18.027344 C 32.46875 18.027344 32.746094 18.304688 32.746094 18.644531 C 32.746094 18.984375 32.46875 19.261719 32.128906 19.261719 C 31.792969 19.261719 31.515625 18.984375 31.515625 18.644531 "/>
<path style=" stroke:none;fill-rule:nonzero;fill:rgb(100%,100%,100%);fill-opacity:1;" d="M 33.324219 18.644531 C 33.324219 18.304688 33.601562 18.027344 33.941406 18.027344 C 34.28125 18.027344 34.554688 18.304688 34.554688 18.644531 C 34.554688 18.984375 34.28125 19.261719 33.941406 19.261719 C 33.601562 19.261719 33.324219 18.984375 33.324219 18.644531 "/>
<path style="fill:none;stroke-width:6.89694;stroke-linecap:butt;stroke-linejoin:miter;stroke:rgb(13.72549%,12.156863%,12.54902%);stroke-opacity:1;stroke-miterlimit:2.6131;" d="M 1287.10446 1208.944242 C 1287.10446 1222.020244 1297.816501 1232.691464 1310.942522 1232.691464 C 1324.068543 1232.691464 1334.62971 1222.020244 1334.62971 1208.944242 C 1334.62971 1195.86824 1324.068543 1185.197021 1310.942522 1185.197021 C 1297.816501 1185.197021 1287.10446 1195.86824 1287.10446 1208.944242 Z M 1287.10446 1208.944242 " transform="matrix(0.0258908,0,0,-0.0259899,0,50.06485)"/>
<path style=" stroke:none;fill-rule:nonzero;fill:rgb(100%,100%,100%);fill-opacity:1;" d="M 35.136719 18.644531 C 35.136719 18.304688 35.410156 18.027344 35.75 18.027344 C 36.089844 18.027344 36.363281 18.304688 36.363281 18.644531 C 36.363281 18.984375 36.089844 19.261719 35.75 19.261719 C 35.410156 19.261719 35.136719 18.984375 35.136719 18.644531 "/>
<path style="fill:none;stroke-width:6.89694;stroke-linecap:butt;stroke-linejoin:miter;stroke:rgb(13.72549%,12.156863%,12.54902%);stroke-opacity:1;stroke-miterlimit:2.6131;" d="M 1357.109907 1208.944242 C 1357.109907 1222.020244 1367.671074 1232.691464 1380.797095 1232.691464 C 1393.923117 1232.691464 1404.484283 1222.020244 1404.484283 1208.944242 C 1404.484283 1195.86824 1393.923117 1185.197021 1380.797095 1185.197021 C 1367.671074 1185.197021 1357.109907 1195.86824 1357.109907 1208.944242 Z M 1357.109907 1208.944242 " transform="matrix(0.0258908,0,0,-0.0259899,0,50.06485)"/>
<path style=" stroke:none;fill-rule:nonzero;fill:rgb(100%,100%,100%);fill-opacity:1;" d="M 36.945312 18.644531 C 36.945312 18.304688 37.21875 18.027344 37.558594 18.027344 C 37.898438 18.027344 38.171875 18.304688 38.171875 18.644531 C 38.171875 18.984375 37.898438 19.261719 37.558594 19.261719 C 37.21875 19.261719 36.945312 18.984375 36.945312 18.644531 "/>
<path style="fill:none;stroke-width:6.89694;stroke-linecap:butt;stroke-linejoin:miter;stroke:rgb(13.72549%,12.156863%,12.54902%);stroke-opacity:1;stroke-miterlimit:2.6131;" d="M 1426.964481 1208.944242 C 1426.964481 1222.020244 1437.525647 1232.691464 1450.651669 1232.691464 C 1463.77769 1232.691464 1474.338857 1222.020244 1474.338857 1208.944242 C 1474.338857 1195.86824 1463.77769 1185.197021 1450.651669 1185.197021 C 1437.525647 1185.197021 1426.964481 1195.86824 1426.964481 1208.944242 Z M 1426.964481 1208.944242 " transform="matrix(0.0258908,0,0,-0.0259899,0,50.06485)"/>
<path style=" stroke:none;fill-rule:nonzero;fill:rgb(100%,100%,100%);fill-opacity:1;" d="M 38.753906 18.644531 C 38.753906 18.304688 39.027344 18.027344 39.367188 18.027344 C 39.707031 18.027344 39.984375 18.304688 39.984375 18.644531 C 39.984375 18.984375 39.707031 19.261719 39.367188 19.261719 C 39.027344 19.261719 38.753906 18.984375 38.753906 18.644531 "/>
<path style="fill:none;stroke-width:6.89694;stroke-linecap:butt;stroke-linejoin:miter;stroke:rgb(13.72549%,12.156863%,12.54902%);stroke-opacity:1;stroke-miterlimit:2.6131;" d="M 1496.819054 1208.944242 C 1496.819054 1222.020244 1507.380221 1232.691464 1520.506242 1232.691464 C 1533.632263 1232.691464 1544.344304 1222.020244 1544.344304 1208.944242 C 1544.344304 1195.86824 1533.632263 1185.197021 1520.506242 1185.197021 C 1507.380221 1185.197021 1496.819054 1195.86824 1496.819054 1208.944242 Z M 1496.819054 1208.944242 " transform="matrix(0.0258908,0,0,-0.0259899,0,50.06485)"/>
<path style=" stroke:none;fill-rule:nonzero;fill:rgb(13.72549%,12.156863%,12.54902%);fill-opacity:1;" d="M 44.996094 28.90625 C 44.996094 28.519531 45.15625 28.164062 45.40625 27.910156 C 45.660156 27.652344 46.011719 27.496094 46.398438 27.496094 C 46.785156 27.496094 47.132812 27.652344 47.386719 27.910156 C 47.640625 28.164062 47.796875 28.519531 47.796875 28.90625 C 47.796875 29.296875 47.636719 29.652344 47.386719 29.90625 C 47.132812 30.160156 46.785156 30.320312 46.398438 30.320312 C 46.011719 30.320312 45.660156 30.160156 45.40625 29.90625 C 45.15625 29.652344 44.996094 29.296875 44.996094 28.90625 Z M 45.242188 28.90625 L 45.246094 28.90625 L 45.242188 28.90625 C 45.242188 29.230469 45.375 29.519531 45.582031 29.730469 C 45.789062 29.941406 46.078125 30.070312 46.398438 30.070312 C 46.714844 30.070312 47.003906 29.941406 47.210938 29.730469 C 47.417969 29.519531 47.546875 29.230469 47.546875 28.90625 C 47.546875 28.585938 47.417969 28.292969 47.210938 28.082031 C 47.003906 27.875 46.714844 27.742188 46.398438 27.742188 C 46.078125 27.742188 45.792969 27.875 45.582031 28.082031 C 45.375 28.292969 45.242188 28.585938 45.242188 28.90625 "/>
<path style=" stroke:none;fill-rule:nonzero;fill:rgb(13.72549%,12.156863%,12.54902%);fill-opacity:1;" d="M 46.140625 28.78125 L 46.332031 28.78125 C 46.457031 28.78125 46.53125 28.773438 46.5625 28.765625 C 46.59375 28.753906 46.617188 28.738281 46.636719 28.710938 C 46.65625 28.683594 46.664062 28.652344 46.664062 28.613281 C 46.664062 28.570312 46.652344 28.53125 46.628906 28.507812 C 46.605469 28.480469 46.574219 28.464844 46.53125 28.457031 C 46.511719 28.453125 46.445312 28.453125 46.34375 28.453125 L 46.140625 28.453125 Z M 45.882812 29.527344 L 45.882812 28.234375 L 46.425781 28.234375 C 46.5625 28.234375 46.660156 28.246094 46.726562 28.265625 C 46.785156 28.292969 46.835938 28.332031 46.875 28.390625 C 46.910156 28.453125 46.929688 28.519531 46.929688 28.59375 C 46.929688 28.691406 46.902344 28.773438 46.84375 28.835938 C 46.789062 28.898438 46.703125 28.941406 46.59375 28.957031 C 46.648438 28.988281 46.695312 29.023438 46.730469 29.0625 C 46.765625 29.105469 46.816406 29.171875 46.875 29.273438 L 47.03125 29.527344 L 46.722656 29.527344 L 46.539062 29.242188 C 46.472656 29.144531 46.425781 29.082031 46.402344 29.054688 C 46.375 29.027344 46.351562 29.011719 46.324219 29 C 46.296875 28.992188 46.253906 28.988281 46.191406 28.988281 L 46.140625 28.988281 L 46.140625 29.527344 L 45.882812 29.527344 "/>
</g>
</svg>
